<svg xmlns="http://www.w3.org/2000/svg" xmlns:xlink="http://www.w3.org/1999/xlink" width="1024" zoomAndPan="magnify" viewBox="0 0 768 767.999994" height="1024" preserveAspectRatio="xMidYMid meet" version="1.0"><defs><g/></defs><rect x="-76.8" width="921.6" fill="#ffffff" y="-76.799999" height="921.599993" fill-opacity="1"/><rect x="-76.8" width="921.6" fill="#ffdefa" y="-76.799999" height="921.599993" fill-opacity="1"/><path stroke-linecap="butt" transform="matrix(3.686748, -0.54779, 0.54779, 3.686748, 88.675736, 175.828223)" fill="none" stroke-linejoin="miter" d="M 17.138974 40.055256 C 17.799951 39.935202 18.131768 39.598833 18.131004 39.047759 C 18.131277 38.49684 17.955569 37.875272 17.604916 37.18321 C 17.254108 36.492184 16.738141 35.835952 16.055977 35.214361 C 14.272738 33.610144 11.857451 32.808385 8.810116 32.809083 C 7.30676 32.808212 5.903667 33.059575 4.600261 33.559908 C 3.216888 32.858498 2.114909 31.746475 1.293441 30.222649 C 0.470782 28.699706 0.0602515 27.055758 0.0596209 25.291533 C 0.0601261 20.681557 1.984216 17.123441 5.832927 14.617338 C 9.140547 12.472665 13.220296 11.399481 18.070829 11.399704 C 21.679604 11.399783 24.716024 11.786313 27.181432 12.557376 C 29.647723 13.32963 31.661491 14.316483 33.225693 15.519435 C 33.687082 16.842483 33.917416 18.215963 33.916849 19.638838 C 33.917317 21.061868 33.726279 22.354727 33.345808 23.517724 C 32.965336 24.68072 32.413635 25.612725 31.691743 26.313891 C 31.010679 25.81325 29.778163 25.301662 27.994041 24.780162 C 26.209764 24.259699 24.586184 23.99833 23.122837 23.999166 C 21.659645 23.998965 20.682097 24.088935 20.191231 24.26923 C 19.699327 24.44937 19.454235 24.729756 19.453727 25.111114 C 19.454495 25.29135 19.484218 25.462113 19.544088 25.622523 C 20.245869 25.44178 21.148274 25.351241 22.250113 25.351787 C 26.159767 25.352071 29.346589 26.273765 31.8125 28.118215 C 34.718671 30.322632 36.172506 33.63038 36.172086 38.040116 C 36.172655 41.929765 34.598734 45.156358 31.451049 47.722122 C 28.043417 50.468586 23.463535 51.841475 17.710213 51.841673 C 14.543271 51.841553 11.796953 51.606199 9.471258 51.135614 C 7.146754 50.664146 4.881457 49.836993 2.676401 48.654311 C 1.172249 46.469613 0.421382 44.249566 0.420539 41.994743 C 0.420885 39.739038 1.192308 37.870203 2.736152 36.386319 C 4.279842 34.903473 6.178503 34.162069 8.434363 34.161379 C 10.689031 34.161572 12.532925 34.623082 13.967234 35.545028 C 15.400507 36.46682 16.457011 37.970472 17.138974 40.055256 Z M 17.138974 40.055256 " stroke="#d269e6" stroke-width="10.624103" stroke-opacity="1" stroke-miterlimit="4"/><path stroke-linecap="butt" transform="matrix(3.721362, -0.208912, 0.208912, 3.721362, 231.527615, 155.049108)" fill="none" stroke-linejoin="miter" d="M 27.061658 11.670089 C 29.467491 11.67079 31.551289 12.32206 33.316131 13.625122 C 35.079927 14.928125 35.961504 16.782021 35.961849 19.187913 L 35.961723 35.906204 C 35.961437 40.997149 34.408072 44.920783 31.301628 47.677106 C 28.194137 50.43337 23.899122 51.811913 18.416641 51.811691 C 12.934161 51.811469 8.669684 50.458353 5.623213 47.752344 C 2.515875 45.046067 0.962552 41.097083 0.962198 35.905332 L 0.961756 14.466586 C 3.327467 12.582953 6.063355 11.640674 9.170406 11.640852 C 11.776804 11.640216 13.841804 12.32717 15.364417 13.700609 C 16.888136 15.073059 17.649941 17.15326 17.649949 19.939119 L 17.650455 37.46885 C 17.870284 37.629196 18.126087 37.709686 18.416816 37.710262 C 18.707605 37.709792 18.917572 37.634456 19.048811 37.484371 C 19.179003 37.334227 19.243349 37.048127 19.243885 36.627234 L 19.244012 19.908944 C 19.243525 18.646148 19.18324 17.644515 19.063276 16.901953 C 18.943252 16.160437 18.702483 15.41949 18.342133 14.677079 C 20.747156 12.67284 23.653295 11.670839 27.061658 11.670089 Z M 27.061658 11.670089 " stroke="#d269e6" stroke-width="10.624103" stroke-opacity="1" stroke-miterlimit="4"/><path stroke-linecap="butt" transform="matrix(3.723253, 0.17195, -0.17195, 3.723253, 383.13265, 146.601517)" fill="none" stroke-linejoin="miter" d="M 34.037399 51.54128 C 31.290721 51.541182 29.135909 51.089893 27.573011 50.188461 C 25.888637 49.246476 24.977249 47.913131 24.836799 46.18957 L 24.565679 43.363092 C 26.409612 42.921223 27.963125 41.779345 29.226122 39.935364 C 29.567145 39.413924 29.737232 38.962279 29.737479 38.581426 C 29.737577 38.061043 29.476887 37.800304 28.955457 37.800254 L 28.865229 37.800225 C 28.845161 37.820036 28.805765 37.830249 28.744898 37.829912 C 27.341887 40.776721 25.067169 42.249865 21.919747 42.250439 C 20.316625 42.249985 18.9481 41.899823 17.815121 41.197808 C 16.683189 40.495745 15.645207 39.283653 14.703173 37.559341 L 14.522716 37.559282 C 13.981347 37.559104 13.71083 37.78982 13.711165 38.251431 C 13.711255 38.571417 13.831822 38.933052 14.071674 39.333241 C 14.873378 40.676898 15.875647 41.72907 17.07853 42.490805 C 18.02092 43.132378 19.013135 43.51251 20.055273 43.633294 L 19.815177 49.316086 C 18.612226 50.097653 17.344779 50.663975 16.011788 51.015102 C 14.678797 51.366228 12.783703 51.540828 10.328696 51.540898 C 7.872642 51.541017 5.682878 51.059868 3.758357 50.0975 C 1.393528 48.91521 0.210753 47.271261 0.210081 45.166697 C 0.210505 42.540656 0.731458 36.055933 1.773988 25.71248 C 2.334901 20.320175 2.786159 16.551772 3.126717 14.407319 C 5.192298 12.562992 8.238401 11.640699 12.268166 11.640293 C 15.194254 11.640499 17.619721 12.182105 19.54452 13.264064 L 21.198536 18.796431 L 20.145801 23.216856 C 20.065261 23.517485 20.025165 23.807853 20.025559 24.089007 C 20.025451 24.790893 20.426076 25.151134 21.22858 25.171776 L 24.084554 13.294648 C 24.906614 12.852761 25.978888 12.467512 27.302328 12.136761 C 28.624722 11.806058 30.068063 11.64078 31.632352 11.640929 C 34.558392 11.640088 36.728941 12.136812 38.14181 13.129105 C 39.554679 14.121398 40.391311 15.789727 40.652802 18.13509 C 40.713036 18.576098 40.802464 19.308472 40.923082 20.330019 C 42.747602 36.006085 43.659685 45.237397 43.659282 48.022908 C 41.43431 50.368745 38.226634 51.540854 34.037399 51.54128 Z M 34.037399 51.54128 " stroke="#d269e6" stroke-width="10.624103" stroke-opacity="1" stroke-miterlimit="4"/><path stroke-linecap="butt" transform="matrix(3.687059, 0.545686, -0.545686, 3.687059, 560.328431, 156.250265)" fill="none" stroke-linejoin="miter" d="M 14.913826 32.628407 L 18.131298 32.627912 L 18.131458 28.598805 L 17.469379 28.599324 C 16.727613 30.022822 15.875841 31.17549 14.914062 32.057329 Z M 15.215107 46.038814 L 17.649704 46.038706 C 18.291778 46.039029 18.752895 45.983497 19.033209 45.873146 C 19.313522 45.762795 19.453814 45.57252 19.454083 45.302321 C 19.454199 45.031085 19.414529 44.805996 19.33373 44.625135 L 10.223632 44.625815 C 6.855567 44.625289 4.280052 43.573032 2.495896 41.468161 C 0.871594 39.584364 0.0603273 37.037799 0.0603302 33.830848 C 0.0599563 32.167569 0.200853 30.714342 0.480946 29.471473 C 3.447709 26.925148 6.203723 24.028612 8.750025 20.781712 C 10.152696 18.977527 12.227838 15.940206 14.974566 11.670939 L 22.641784 11.670857 C 25.147377 11.670836 27.191571 12.347225 28.775403 13.699871 C 30.359388 15.053554 31.151135 16.902712 31.150642 19.247344 L 31.151285 30.733791 L 30.519886 30.734007 C 29.657414 30.73346 29.226935 31.074747 29.226068 31.756101 L 29.226703 32.146943 L 34.067291 32.146721 C 34.769086 33.910664 35.12028 35.925671 35.119684 38.19086 C 35.120149 39.754538 34.788662 41.122611 34.127297 42.294775 C 33.466086 43.467974 32.463704 44.204321 31.120305 44.504852 L 31.121099 49.10592 C 28.875948 50.729671 26.164123 51.541029 22.986814 51.540877 C 19.809658 51.541761 17.219202 50.789421 15.214715 49.286083 Z M 15.215107 46.038814 " stroke="#d269e6" stroke-width="10.624103" stroke-opacity="1" stroke-miterlimit="4"/><g fill="#ffa5f0" fill-opacity="1"><g transform="translate(116.613042, 363.852352)"><g><path d="M 57.1875 -49.75 C 59.5625 -50.550781 60.597656 -51.96875 60.296875 -54 C 59.992188 -56.03125 59.003906 -58.222656 57.328125 -60.578125 C 55.660156 -62.941406 53.398438 -65.078125 50.546875 -66.984375 C 43.085938 -71.921875 33.742188 -73.554688 22.515625 -71.890625 C 16.972656 -71.066406 11.9375 -69.375 7.40625 -66.8125 C 1.914062 -68.632812 -2.753906 -72.128906 -6.609375 -77.296875 C -10.472656 -82.460938 -12.890625 -88.296875 -13.859375 -94.796875 C -16.390625 -111.796875 -11.242188 -125.972656 1.578125 -137.328125 C 12.597656 -147.035156 27.050781 -153.222656 44.9375 -155.890625 C 58.238281 -157.859375 69.644531 -158.09375 79.15625 -156.59375 C 88.664062 -155.101562 96.628906 -152.570312 103.046875 -149 C 105.472656 -144.375 107.070312 -139.4375 107.84375 -134.1875 C 108.625 -128.945312 108.632812 -124.078125 107.875 -119.578125 C 107.113281 -115.085938 105.597656 -111.351562 103.328125 -108.375 C 100.535156 -109.84375 95.703125 -111.046875 88.828125 -111.984375 C 81.960938 -112.929688 75.832031 -113.003906 70.4375 -112.203125 C 65.050781 -111.410156 61.503906 -110.546875 59.796875 -109.609375 C 58.085938 -108.671875 57.34375 -107.5 57.5625 -106.09375 C 57.65625 -105.4375 57.847656 -104.820312 58.140625 -104.25 C 60.640625 -105.3125 63.921875 -106.144531 67.984375 -106.75 C 82.390625 -108.882812 94.644531 -107.226562 104.75 -101.78125 C 116.664062 -95.238281 123.832031 -83.835938 126.25 -67.578125 C 128.375 -53.253906 124.335938 -40.5 114.140625 -29.3125 C 103.097656 -17.3125 86.972656 -9.738281 65.765625 -6.59375 C 54.078125 -4.851562 43.816406 -4.21875 34.984375 -4.6875 C 26.148438 -5.15625 17.347656 -6.960938 8.578125 -10.109375 C 1.835938 -17.335938 -2.144531 -25.109375 -3.375 -33.421875 C -4.613281 -41.742188 -2.796875 -49.0625 2.078125 -55.375 C 6.960938 -61.6875 13.5625 -65.457031 21.875 -66.6875 C 30.1875 -67.925781 37.234375 -67.238281 43.015625 -64.625 C 48.804688 -62.019531 53.53125 -57.0625 57.1875 -49.75 Z M 57.1875 -49.75 "/></g></g></g><g fill="#ffa5f0" fill-opacity="1"><g transform="translate(242.182151, 344.838588)"><g><path d="M 92.484375 -152 C 101.429688 -152.5 109.320312 -150.507812 116.15625 -146.03125 C 122.988281 -141.5625 126.660156 -134.847656 127.171875 -125.890625 L 130.65625 -63.6875 C 131.71875 -44.738281 126.757812 -29.804688 115.78125 -18.890625 C 104.800781 -7.984375 89.109375 -1.957031 68.703125 -0.8125 C 48.296875 0.332031 32.144531 -3.816406 20.25 -13.265625 C 8.125 -22.679688 1.519531 -37.050781 0.4375 -56.375 L -4.03125 -136.140625 C 4.363281 -143.648438 14.347656 -147.734375 25.921875 -148.390625 C 35.609375 -148.929688 43.425781 -146.804688 49.375 -142.015625 C 55.332031 -137.222656 58.601562 -129.640625 59.1875 -119.265625 L 62.84375 -54.046875 C 63.695312 -53.484375 64.664062 -53.234375 65.75 -53.296875 C 66.832031 -53.359375 67.597656 -53.679688 68.046875 -54.265625 C 68.503906 -54.859375 68.691406 -55.9375 68.609375 -57.5 L 65.109375 -119.703125 C 64.847656 -124.410156 64.414062 -128.128906 63.8125 -130.859375 C 63.207031 -133.597656 62.15625 -136.304688 60.65625 -138.984375 C 69.195312 -146.941406 79.804688 -151.28125 92.484375 -152 Z M 92.484375 -152 "/></g></g></g><g fill="#ffa5f0" fill-opacity="1"><g transform="translate(374.363219, 336.487427)"><g><path d="M 126.625 7.875 C 116.40625 7.394531 108.460938 5.335938 102.796875 1.703125 C 96.691406 -2.078125 93.523438 -7.195312 93.296875 -13.65625 L 92.78125 -24.21875 C 99.71875 -25.539062 105.703125 -29.519531 110.734375 -36.15625 C 112.066406 -38.050781 112.769531 -39.707031 112.84375 -41.125 C 112.925781 -43.070312 112.003906 -44.085938 110.078125 -44.171875 L 109.734375 -44.1875 C 109.660156 -44.113281 109.515625 -44.082031 109.296875 -44.09375 C 103.554688 -33.363281 94.828125 -28.269531 83.109375 -28.8125 C 77.140625 -29.082031 72.101562 -30.617188 68 -33.421875 C 63.90625 -36.234375 60.253906 -40.929688 57.046875 -47.515625 L 56.375 -47.546875 C 54.375 -47.640625 53.332031 -46.828125 53.25 -45.109375 C 53.195312 -43.910156 53.578125 -42.546875 54.390625 -41.015625 C 57.148438 -35.878906 60.707031 -31.789062 65.0625 -28.75 C 68.445312 -26.195312 72.070312 -24.601562 75.9375 -23.96875 L 74.078125 -2.875 C 69.453125 -0.164062 64.625 1.722656 59.59375 2.796875 C 54.570312 3.878906 47.488281 4.207031 38.34375 3.78125 C 29.207031 3.363281 21.144531 1.195312 14.15625 -2.71875 C 5.539062 -7.519531 1.414062 -13.84375 1.78125 -21.6875 C 2.238281 -31.46875 5.296875 -55.519531 10.953125 -93.84375 C 13.960938 -113.8125 16.289062 -127.769531 17.9375 -135.71875 C 25.9375 -142.226562 37.4375 -145.132812 52.4375 -144.4375 C 63.332031 -143.9375 72.269531 -141.5 79.25 -137.125 L 84.46875 -116.265625 L 79.78125 -99.96875 C 79.4375 -98.875 79.238281 -97.800781 79.1875 -96.75 C 79.070312 -94.132812 80.503906 -92.71875 83.484375 -92.5 L 96.15625 -136.234375 C 99.289062 -137.734375 103.347656 -138.988281 108.328125 -140 C 113.316406 -141.007812 118.71875 -141.378906 124.53125 -141.109375 C 135.425781 -140.609375 143.421875 -138.390625 148.515625 -134.453125 C 153.609375 -130.515625 156.441406 -124.15625 157.015625 -115.375 C 157.160156 -113.726562 157.367188 -110.988281 157.640625 -107.15625 C 161.734375 -48.476562 163.539062 -13.953125 163.0625 -3.578125 C 154.375 4.773438 142.226562 8.59375 126.625 7.875 Z M 126.625 7.875 "/></g></g></g><g fill="#ffa5f0" fill-opacity="1"><g transform="translate(532.498433, 344.290293)"><g><path d="M 65 -59.59375 L 76.859375 -57.84375 L 79.0625 -72.6875 L 76.625 -73.046875 C 73.125 -68.210938 69.359375 -64.429688 65.328125 -61.703125 Z M 58.796875 -9.984375 L 67.78125 -8.65625 C 70.144531 -8.300781 71.875 -8.25 72.96875 -8.5 C 74.070312 -8.757812 74.695312 -9.390625 74.84375 -10.390625 C 74.988281 -11.390625 74.960938 -12.25 74.765625 -12.96875 L 41.1875 -17.9375 C 28.769531 -19.769531 19.84375 -25.050781 14.40625 -33.78125 C 9.445312 -41.613281 7.835938 -51.441406 9.578125 -63.265625 C 10.492188 -69.398438 11.8125 -74.679688 13.53125 -79.109375 C 25.84375 -86.878906 37.578125 -96.050781 48.734375 -106.625 C 54.898438 -112.519531 64.207031 -122.585938 76.65625 -136.828125 L 104.9375 -132.640625 C 114.164062 -131.273438 121.332031 -127.664062 126.4375 -121.8125 C 131.550781 -115.957031 133.46875 -108.707031 132.1875 -100.0625 L 125.921875 -57.71875 L 123.578125 -58.0625 C 120.410156 -58.53125 118.640625 -57.503906 118.265625 -54.984375 L 118.046875 -53.546875 L 135.875 -50.90625 C 137.507812 -44.03125 137.707031 -36.414062 136.46875 -28.0625 C 135.613281 -22.300781 133.648438 -17.4375 130.578125 -13.46875 C 127.503906 -9.507812 123.40625 -7.335938 118.28125 -6.953125 L 115.765625 10 C 106.609375 14.757812 96.171875 16.269531 84.453125 14.53125 C 72.734375 12.800781 63.59375 8.613281 57.03125 1.96875 Z M 58.796875 -9.984375 "/></g></g></g><path stroke-linecap="butt" transform="matrix(1.131343, -0.191167, 0.191167, 1.131343, 47.692405, 343.273246)" fill="none" stroke-linejoin="miter" d="M 94.599939 33.048559 C 97.422755 33.180264 100.313203 33.851669 103.267358 35.065563 C 106.220946 36.282813 108.668154 38.433062 110.605058 41.519099 C 112.576665 44.604094 113.559326 49.168948 113.560889 55.208081 C 113.560136 61.281351 112.574719 65.927982 110.605205 69.144619 C 108.669827 72.363572 106.222413 74.546496 103.269675 75.694526 C 100.313012 76.845346 97.425078 77.548562 94.600812 77.813679 L 54.663083 77.811949 L 54.66393 83.671418 L 88.542384 83.671307 C 90.973148 83.671164 93.419628 84.150156 95.879601 85.101003 C 98.376026 86.020029 100.495614 87.759286 102.234441 90.321561 C 104.007971 92.882795 104.892964 96.574863 104.89221 101.401687 C 104.893064 106.259858 104.007134 109.97034 102.234989 112.529776 C 100.492014 115.059614 98.3763 116.832464 95.881133 117.847194 C 93.419536 118.867595 90.97196 119.375906 88.544553 119.376617 L 64.562105 119.374303 L 64.561148 125.040113 L 68.400669 125.039772 L 68.40393 140.5501 C 68.401778 143.505295 68.154823 146.805833 67.663632 150.448358 C 67.204969 154.061851 65.9893 157.557789 64.019414 160.940096 C 62.08319 164.286657 58.99643 167.045194 54.759699 169.21235 C 50.525284 171.34537 44.713232 172.414225 37.328035 172.412767 C 30.073803 172.412723 24.36001 171.347114 20.190578 169.213151 C 16.020104 167.044483 12.950194 164.288365 10.98198 160.938081 C 9.042937 157.558198 7.831766 154.059614 7.336696 150.450697 C 6.878644 146.806602 6.649299 143.504996 6.647528 140.55259 L 6.648007 58.263153 C 6.64714 56.654023 6.843455 54.470526 7.240309 51.71323 C 7.665154 48.953758 8.585397 46.164054 9.998251 43.340195 C 11.407748 40.515769 13.624522 38.103971 16.645782 36.100878 C 19.665434 34.066438 23.735594 33.048525 28.859621 33.047708 Z M 20.586041 54.814229 C 20.453469 56.027914 20.847809 56.636629 21.766272 56.636451 C 22.719438 56.635231 23.261583 56.22619 23.393273 55.40597 C 23.652767 54.748908 23.85259 53.995445 23.983239 53.140521 C 24.146982 52.253209 24.424535 51.530144 24.819254 50.971892 C 26.689642 48.280588 29.97568 46.508684 34.667297 45.654478 C 39.395366 44.768451 44.38718 44.324057 49.638816 44.324086 C 53.940643 44.325901 58.029385 44.505782 61.901118 44.866518 C 65.809303 45.195433 68.975705 45.357573 71.405902 45.360786 C 72.490034 45.36098 73.097187 44.914584 73.229584 44.028881 C 73.358623 43.142611 72.88249 42.568413 71.801184 42.306288 C 69.667623 42.304859 66.578951 42.173117 62.541883 41.912196 C 58.504815 41.651275 54.269885 41.5192 49.836525 41.519328 C 44.057101 41.516437 38.510551 41.994847 33.191295 42.946711 C 27.874354 43.864439 24.276608 45.866798 22.408126 48.955491 C 21.846854 49.906836 21.471961 50.858599 21.273375 51.809079 C 21.076537 52.728779 20.848167 53.732923 20.586041 54.814229 Z M 37.329557 159.510078 C 33.158697 159.509676 28.991025 158.836525 24.81926 157.492848 L 23.588907 160.299206 C 28.711858 161.775986 33.355123 162.515689 37.525983 162.516091 C 41.006744 162.513826 44.353301 161.957159 47.570147 160.839945 C 50.820087 159.690343 53.92329 157.835754 56.879755 155.276176 C 57.567418 154.618956 57.764079 154.027238 57.46974 153.501022 C 57.207928 152.945775 56.747929 152.664335 56.091398 152.667339 C 55.663796 152.664141 55.317756 152.729969 55.057201 152.862032 C 52.233115 155.292057 49.345126 157.01728 46.390445 158.033777 C 43.434154 159.018927 40.412929 159.50972 37.329557 159.510078 Z M 82.092904 46.541656 C 82.617902 46.540595 83.092258 46.410131 83.519896 46.147473 C 84.045618 45.324779 84.110226 44.717653 83.717076 44.326662 C 83.32255 43.800781 82.980043 43.539194 82.683408 43.537409 C 82.158409 43.53847 81.713429 44.046796 81.355181 45.063521 C 81.026671 46.047291 81.27127 46.540932 82.092904 46.541656 Z M 19.35261 154.290311 C 18.696646 154.289959 18.236248 154.685191 17.97534 155.473219 C 17.973733 156.688317 18.434124 157.294382 19.352587 157.294204 C 20.305753 157.292984 20.848604 156.81846 20.978351 155.866707 L 20.977114 155.66969 C 20.845969 154.749814 20.305776 154.289091 19.35261 154.290311 Z M 19.35261 154.290311 " stroke="#d269e6" stroke-width="34.038563" stroke-opacity="1" stroke-miterlimit="4"/><path stroke-linecap="butt" transform="matrix(1.144864, -0.0759468, 0.0759468, 1.144864, 193.333441, 318.536488)" fill="none" stroke-linejoin="miter" d="M 141.383483 85.4956 C 141.38347 91.667867 140.711788 97.215541 139.36504 102.138397 C 138.020319 107.030679 136.14728 111.297643 133.752491 114.943135 L 126.856788 105.635024 L 123.65676 108.097735 L 134.342589 123.020899 C 135.818106 125.415041 137.229924 128.306519 138.578492 131.688537 C 139.922521 135.036135 140.597193 138.598639 140.59594 142.372203 C 140.597493 146.412088 139.347411 150.546366 136.85204 154.782281 C 134.360066 159.018422 129.762351 163.005691 123.065238 166.751334 C 119.552549 168.783865 116.286964 170.22887 113.265313 171.082723 C 110.244806 171.970773 107.455146 172.413519 104.89271 172.414134 C 100.46059 172.41355 96.6192 171.377381 93.368315 169.309023 C 90.153653 167.208949 87.458586 164.682725 85.29353 161.727633 C 83.159272 158.771171 81.355511 156.078884 79.875453 153.65032 L 63.32867 120.558542 L 58.699201 123.018551 L 67.172108 139.565733 L 67.171526 140.551756 C 67.170005 143.506428 66.923789 146.806537 66.433106 150.448687 C 65.971627 154.062065 64.774102 157.558378 62.837135 160.937398 C 60.901971 164.289242 57.798512 167.044965 53.529704 169.211585 C 49.293723 171.346263 43.483922 172.414361 36.09713 172.412256 C 28.843273 172.412146 23.130605 171.347377 18.959575 169.211155 C 14.790574 167.044361 11.721767 164.288626 9.749981 160.940329 C 7.814645 157.556918 6.616864 154.062071 6.157089 150.448995 C 5.695945 146.805119 5.46772 143.507657 5.465844 140.55276 L 5.467475 85.493786 C 5.4664 73.937346 7.240146 64.532182 10.785318 57.278067 C 14.363543 49.988613 19.370634 44.407811 25.80342 40.532039 C 32.272205 36.627947 39.77293 33.935324 48.308765 32.457791 C 56.846855 30.946288 66.088815 30.191168 76.034645 30.192433 C 96.752219 30.191748 112.823076 34.608402 124.247442 43.438999 C 135.670439 52.238798 141.383735 66.255475 141.383483 85.4956 Z M 35.89857 48.363462 C 35.373584 48.92232 35.243329 49.497128 35.504409 50.087659 C 35.768886 50.678416 36.162124 50.974048 36.68752 50.974782 C 37.114177 50.972377 37.459739 50.906589 37.720809 50.777193 C 41.891386 48.085436 47.440214 46.065144 54.367069 44.719715 C 61.293924 43.374285 68.38428 42.701626 75.641759 42.698564 C 80.763009 42.700507 85.66922 43.012322 90.367186 43.634461 C 95.060386 44.225576 99.099705 45.261227 102.478574 46.737567 C 102.742675 46.871094 103.069482 46.933717 103.465115 46.936078 C 104.15447 46.93404 104.598253 46.673461 104.793518 46.147322 C 104.992181 45.621408 104.891679 45.079061 104.498808 44.520731 C 101.938465 43.30682 97.80195 42.14189 92.089265 41.02594 C 86.375436 39.875795 80.022942 39.300851 73.031783 39.301107 C 66.562623 39.301872 60.03049 39.943323 53.432212 41.221838 C 46.864507 42.50238 41.022299 44.88194 35.89857 48.363462 Z M 73.228798 73.775151 C 70.405292 73.905162 68.68013 74.708541 68.056707 76.185516 C 67.467255 77.664743 67.170781 78.945039 67.170683 80.02663 L 67.170795 85.888415 C 67.170472 86.973402 67.499728 88.284972 68.154715 89.829692 C 68.844123 91.369871 70.734216 92.14353 73.818651 92.143423 C 76.511216 91.878483 78.153256 91.042293 78.744996 89.631457 C 79.367534 88.219252 79.678964 86.970655 79.679062 85.889065 L 79.67895 80.02728 C 79.679048 78.94569 79.367003 77.63185 78.742589 76.089158 C 78.152371 74.545323 76.313233 73.775044 73.228798 73.775151 Z M 131.28898 140.352485 C 130.763359 140.355148 130.302365 140.617998 129.909396 141.141258 C 127.348048 146.526045 123.885115 150.431641 119.520373 152.861444 C 115.152234 155.291021 110.016114 156.901957 104.105671 157.687008 L 104.302338 160.740126 C 110.604099 159.919619 116.170689 158.197347 120.99554 155.569465 C 125.854362 152.943836 129.69716 148.609645 132.520312 142.570066 C 132.780971 141.881078 132.782832 141.338697 132.518873 140.945869 C 132.258536 140.549869 131.848346 140.355472 131.28898 140.352485 Z M 25.804911 160.299376 C 30.927324 161.77537 35.573241 162.513475 39.742664 162.513692 C 43.222731 162.515947 46.569454 161.956615 49.786003 160.83932 C 53.038776 159.690309 56.140493 157.835233 59.09455 155.274318 C 59.782785 154.620518 59.982557 154.026438 59.686397 153.501819 C 59.423064 152.945258 58.96393 152.665726 58.305374 152.666395 C 57.878943 152.665403 57.536778 152.731416 57.272085 152.863984 C 54.449786 155.290336 51.561356 157.016258 48.603848 158.03473 C 45.651991 159.019457 42.630448 159.511648 39.542617 159.511529 C 35.373194 159.511312 31.204004 158.838951 27.035272 157.491049 Z M 61.311663 89.140318 C 60.390634 89.137223 59.932671 89.662995 59.931204 90.713787 C 60.193114 93.14343 61.096737 95.311975 62.638899 97.215802 C 64.183316 99.085658 66.234747 100.153214 68.796817 100.415297 C 69.878407 100.415395 70.420637 99.956629 70.420335 99.035375 C 70.42206 98.083547 69.943813 97.526377 68.992386 97.364315 C 66.826175 97.101196 65.268197 96.001547 64.31528 94.061746 C 63.394965 92.093399 62.934177 90.912995 62.936539 90.517363 C 62.803076 89.597511 62.263716 89.138646 61.311663 89.140318 Z M 80.466319 64.711965 C 79.415302 64.713895 78.891184 65.156803 78.890343 66.043862 C 78.891755 66.89695 79.349621 67.452768 80.270283 67.71856 C 82.568252 67.847117 84.144341 68.930907 84.998778 70.966535 C 85.882643 72.969995 86.32759 74.183468 86.326597 74.609899 C 86.589598 75.53152 87.132355 75.99061 87.951248 75.990341 C 88.9033 75.98867 89.379376 75.447039 89.379474 74.365449 C 89.084737 71.967749 88.165048 69.835669 86.624254 67.962641 C 85.078694 66.058589 83.028389 64.974048 80.466319 64.711965 Z M 107.699888 45.951157 C 107.044588 46.211352 106.651151 46.690225 106.516858 47.37736 L 106.519154 48.165679 C 106.650364 49.119501 107.175009 49.59445 108.092866 49.593922 C 108.781996 49.595281 109.195448 49.380458 109.325978 48.955796 C 110.147231 48.559894 110.472919 47.970755 110.310286 47.182036 C 110.180479 46.361374 109.586783 45.950084 108.535991 45.948618 Z M 98.441654 156.506048 C 97.226903 156.507352 96.75107 157.096767 97.013704 158.281085 C 97.407836 159.231877 97.949467 159.707952 98.638596 159.709311 C 99.853347 159.708007 100.328904 158.968447 100.068666 157.490857 L 99.870219 157.293446 C 99.444295 156.770455 98.96705 156.506781 98.441654 156.506048 Z M 20.191784 155.470975 C 20.189691 156.6855 20.650745 157.296121 21.568602 157.295594 C 22.520655 157.293923 23.064011 156.818171 23.195275 155.868112 L 23.194757 155.670183 C 23.064691 154.750557 22.521934 154.291467 21.570107 154.289741 C 20.91155 154.29041 20.452185 154.683023 20.191784 155.470975 Z M 20.191784 155.470975 " stroke="#d269e6" stroke-width="34.038563" stroke-opacity="1" stroke-miterlimit="4"/><path stroke-linecap="butt" transform="matrix(1.146151, 0.0530933, -0.0530933, 1.146151, 375.62061, 307.320473)" fill="none" stroke-linejoin="miter" d="M 141.385707 106.866703 C 141.383779 106.604365 141.351693 109.001777 141.285889 114.055697 C 141.218668 119.07901 141.123116 127.978696 140.988714 140.748427 C 140.989266 143.703264 140.743391 147.003514 140.250931 150.645777 C 139.79122 154.259258 138.593238 157.753571 136.657299 161.135519 C 134.719784 164.483457 131.633774 167.243867 127.398952 169.409945 C 123.162555 171.542015 117.336357 172.609409 109.9168 172.608883 C 102.660955 172.610998 96.947149 171.543095 92.778938 169.408416 C 88.609309 167.243129 85.540313 164.484963 83.568705 161.137475 C 81.632931 157.754246 80.434919 154.258454 79.974511 150.646698 C 79.515928 147.000776 79.284739 143.702176 79.284188 140.74734 L 79.28684 136.316627 C 82.76484 135.102399 85.637525 132.88695 87.904736 129.66688 C 90.201295 126.418186 91.498995 122.575031 91.794751 118.144374 L 86.720018 118.14429 C 86.460459 123.135614 84.949348 126.712595 82.190244 128.878477 C 79.433124 131.013593 76.381202 132.081983 73.030922 132.080404 C 69.650034 132.080242 66.546948 131.014095 63.724908 128.878404 C 60.90145 126.712105 59.358784 123.133442 59.093668 118.145974 L 54.069948 118.143526 C 54.333192 122.575554 55.598443 126.41927 57.861986 129.668031 C 60.16152 132.884451 63.065719 135.10154 66.581225 136.315582 L 66.57873 140.749695 C 66.579281 143.704532 66.333249 147.001381 65.840947 150.647045 C 65.381078 154.257125 64.166249 157.755627 62.196144 161.135748 C 60.258629 164.483687 57.206627 167.242522 53.036579 169.409007 C 48.868357 171.541327 43.154702 172.610324 35.8987 172.609038 C 28.513309 172.610338 22.70072 171.543602 18.467735 169.408516 C 14.233333 167.242822 11.130171 164.48283 9.158563 161.135342 C 7.222947 157.755513 6.007773 154.257108 5.516757 150.64677 C 5.054773 147.001006 4.826985 143.702249 4.826433 140.747412 C 4.694938 127.976365 4.596327 119.078857 4.530758 114.058288 C 4.463456 109.000309 4.430926 106.60589 4.432854 106.868227 C 4.43211 99.053384 4.79419 91.419406 5.515696 83.96645 C 6.271367 76.515321 7.862842 69.523063 10.293521 62.98952 C 12.720798 56.456134 16.348253 50.743046 21.175883 45.850256 C 26.036262 40.928683 32.487072 37.08539 40.528628 34.327178 C 48.60435 31.570792 58.700215 30.193145 70.816066 30.190837 L 75.049056 30.192424 C 87.130899 30.191691 97.211376 31.571947 105.286931 34.329948 C 113.362328 37.084548 119.814698 40.926551 124.640482 45.852714 C 129.498699 50.743292 133.127246 56.457666 135.522408 62.98919 C 137.951736 69.52254 139.529824 76.514524 140.250028 83.968858 C 141.007642 91.421459 141.384963 99.051859 141.385707 106.866703 Z M 67.369671 93.373913 C 67.36718 94.423738 67.662491 95.722194 68.255445 97.265882 C 68.879008 98.808151 70.666428 99.577389 73.621422 99.580238 C 76.315237 99.315719 77.922558 98.477838 78.446786 97.066439 C 79.005181 95.656865 79.285467 94.423765 79.284557 93.374098 L 79.285275 79.042813 C 79.286191 77.95898 78.973246 76.647708 78.349526 75.102037 C 77.76013 73.561593 75.986155 72.788325 73.031319 72.788876 C 70.47111 72.921105 68.879218 73.72419 68.255799 75.201531 C 67.663146 76.680854 67.367904 77.958953 67.366989 79.042785 Z M 48.997927 46.541585 C 48.475124 47.100881 48.311615 47.691249 48.507402 48.312686 C 48.705171 48.903358 49.148328 49.199787 49.836875 49.201973 L 50.232161 49.200703 C 56.272656 46.211413 63.197003 44.718253 71.011846 44.717509 C 79.876514 44.719255 88.216518 46.343726 96.028614 49.59448 C 97.079754 49.331075 97.540146 48.822383 97.406391 48.068562 C 97.275879 47.311184 96.686604 46.803402 95.63501 46.541974 C 92.251839 44.800356 88.64199 43.536154 84.80206 42.749526 C 80.991163 41.927472 77.069938 41.519506 73.031269 41.519142 C 64.824382 41.517598 56.814507 43.193961 48.997927 46.541585 Z M 128.87437 155.865792 C 129.566521 155.210038 129.760637 154.618253 129.467079 154.093365 C 129.202711 153.536451 128.743336 153.257814 128.088956 153.257453 C 127.693512 153.255323 127.348989 153.322404 127.05507 153.451896 C 124.229877 155.883267 121.341151 157.605277 118.385807 158.624888 C 115.432287 159.610332 112.411557 160.101301 109.323772 160.101195 C 105.155555 160.100015 100.986911 159.427451 96.81784 158.083501 L 95.634608 160.939808 C 100.723141 162.414981 105.351595 163.154857 109.523213 163.155879 C 113.03349 163.153455 116.401515 162.581643 119.616612 161.430715 C 122.835268 160.28303 125.922216 158.425736 128.87437 155.865792 Z M 21.767452 160.299056 C 26.88675 161.776211 31.532208 162.5153 35.703826 162.516322 C 39.183496 162.515316 42.531746 161.958053 45.748418 160.841133 C 49.001082 159.691873 52.101791 157.83735 55.057189 155.273847 C 55.745938 154.618251 55.943455 154.026308 55.646496 153.501577 C 55.385529 152.944506 54.926155 152.665869 54.268373 152.665666 C 53.873087 152.666936 53.528406 152.730617 53.234645 152.86351 C 50.412696 155.291322 47.520727 157.016891 44.568625 158.032943 C 41.611705 159.018545 38.590974 159.509513 35.50659 159.50925 C 31.33513 159.511629 27.166486 158.839064 22.997257 157.491714 Z M 61.506928 102.039757 C 60.59021 102.041324 60.195759 102.649206 60.326976 103.863243 C 60.849673 106.391731 62.180611 107.901233 64.313148 108.395465 C 66.481518 108.853955 68.649536 109.084116 70.813643 109.082704 C 71.864783 108.819299 72.326371 108.262838 72.194848 107.410077 C 72.061751 106.523309 71.472069 106.080301 70.422245 106.07781 L 68.796574 106.078137 C 67.712899 106.080622 66.56495 105.94635 65.3498 105.685682 C 64.133074 105.391006 63.396358 104.569688 63.132851 103.222045 C 63.000921 102.434058 62.461214 102.039857 61.506928 102.039757 Z M 79.87491 67.124479 C 78.924183 67.127622 78.384245 67.537754 78.251854 68.358433 C 78.121289 69.144947 78.466017 69.670873 79.285882 69.932811 C 80.761702 70.229118 81.632784 71.081701 81.895884 72.494119 C 82.158984 73.906536 82.288653 74.940014 82.28845 75.597795 C 82.55053 76.546752 83.094176 77.025974 83.915513 77.025417 C 84.866398 77.025675 85.342219 76.482187 85.343135 75.398354 C 85.211462 73.659483 84.733692 71.953685 83.913065 70.277402 C 83.094422 68.570353 81.747184 67.518298 79.87491 67.124479 Z M 99.033725 51.414957 C 99.032049 52.335234 99.510133 52.797045 100.46086 52.793902 C 101.544693 52.794818 102.085826 52.336916 102.087502 51.416639 C 102.085016 50.332964 101.545337 49.792211 100.461504 49.791296 C 99.51062 49.791038 99.031398 50.334683 99.033725 51.414957 Z M 89.972689 156.062602 C 89.971115 157.279383 90.43201 157.885132 91.352287 157.886808 C 92.303172 157.887066 92.844147 157.425763 92.97537 156.506302 L 92.974229 156.260968 C 92.842957 155.340033 92.303658 154.881059 91.349372 154.880958 C 90.694992 154.880598 90.232801 155.276904 89.972689 156.062602 Z M 16.152264 155.474216 C 16.153934 156.687438 16.611428 157.293345 17.531704 157.29502 C 18.482589 157.295278 19.026335 156.820215 19.155983 155.866745 L 19.157048 155.669023 C 19.025933 154.751489 18.483075 154.289271 17.532191 154.289013 C 16.874567 154.292211 16.41562 154.684959 16.152264 155.474216 Z M 16.152264 155.474216 " stroke="#d269e6" stroke-width="34.038563" stroke-opacity="1" stroke-miterlimit="4"/><path stroke-linecap="butt" transform="matrix(1.133179, 0.179961, -0.179961, 1.133179, 558.275063, 316.772025)" fill="none" stroke-linejoin="miter" d="M 37.524353 172.411804 C 30.399214 172.412683 24.786693 171.280527 20.683426 169.015872 C 16.578183 166.717059 13.542294 163.793396 11.572931 160.24878 C 9.636282 156.671392 8.388541 152.960467 7.830241 149.119369 C 7.306634 145.279656 7.042596 141.750331 7.04149 138.53086 L 7.041037 63.92406 C 7.0425 60.807596 7.271086 57.34137 7.731757 53.534937 C 8.224608 49.692369 9.406442 45.99892 11.27726 42.454591 C 13.180258 38.874126 16.184893 35.935687 20.287802 33.639807 C 24.393539 31.340031 30.071635 30.193541 37.327748 30.192546 C 41.760672 30.191772 45.783105 30.731896 49.39222 31.816815 C 53.038854 32.899222 56.400941 35.033389 59.488567 38.217713 C 62.608908 41.369265 65.645526 46.099124 68.597353 52.400564 L 81.106434 78.20499 L 85.932601 76.187225 L 75.837567 55.208081 C 75.181795 53.20601 74.853633 51.400107 74.85308 49.790371 C 74.852872 44.405941 77.529995 39.795934 82.88002 35.95416 C 88.264736 32.113771 95.86409 30.193352 105.681444 30.192369 C 112.806583 30.191491 118.418412 31.340992 122.523656 33.639805 C 126.625003 35.93579 129.647601 38.84088 131.584726 42.356144 C 133.55403 45.835273 134.800486 49.494695 135.32799 53.337236 C 135.884312 57.144177 136.165696 60.674194 136.164883 63.924995 L 136.165336 138.531794 C 136.162429 141.617464 135.916498 145.082996 135.426475 148.921668 C 134.964419 152.762793 133.785255 156.473053 131.878894 160.054052 C 130.008076 163.598382 127.019561 166.551497 122.917245 168.916226 C 118.847642 171.248182 113.165491 172.412551 105.878049 172.411628 C 101.445125 172.412402 97.439979 171.807483 93.861543 170.590148 C 90.318332 169.37756 86.818413 166.896436 83.373475 163.155262 C 79.957354 159.378487 76.2303 153.665527 72.192312 146.016384 L 60.130302 121.985188 L 55.449977 124.400345 L 67.368055 147.199632 C 68.056599 149.234418 68.401414 151.058359 68.401434 152.664732 C 68.401642 158.049162 65.743842 162.694019 60.425205 166.603199 C 55.104056 170.474859 47.473214 172.414067 37.524353 172.411804 Z M 126.461847 152.468795 C 126.068927 152.469146 125.741552 152.534925 125.476359 152.666667 C 122.654426 155.062464 119.747098 156.768603 116.761633 157.787377 C 113.806964 158.804708 110.785113 159.312187 107.699978 159.312642 C 103.529001 159.313182 99.361493 158.640975 95.190197 157.293727 L 94.008987 160.101156 C 99.097215 161.578559 103.727084 162.318672 107.898061 162.318132 C 111.410808 162.31871 114.776154 161.760128 117.990734 160.642919 C 121.210596 159.493847 124.311597 157.639748 127.300464 155.079553 C 127.956131 154.389409 128.152757 153.782507 127.889808 153.255485 C 127.627393 152.731825 127.151406 152.469595 126.461847 152.468795 Z M 84.506614 44.720503 C 83.981269 45.276194 83.847994 45.869588 84.112445 46.492893 C 84.374918 47.082039 84.784033 47.379019 85.342619 47.379936 C 85.735539 47.379585 86.066277 47.313272 86.328107 47.182064 C 89.151425 44.751575 92.038738 43.027932 94.993407 42.010602 C 97.948076 40.993271 100.986739 40.483122 104.106566 40.484052 C 108.27418 40.484046 112.428238 41.158389 116.564843 42.504252 L 117.794194 39.696072 C 112.675171 38.220112 108.027956 37.479307 103.860341 37.479313 C 100.509897 37.480536 97.210731 38.021714 93.960015 39.106743 C 90.744843 40.155103 87.591645 42.027833 84.506614 44.720503 Z M 26.840039 157.48983 L 25.607325 160.298544 C 30.730244 161.777332 35.373563 162.515309 39.54454 162.514769 C 43.022596 162.513962 46.374492 161.957516 49.589072 160.840307 C 52.839729 159.689791 55.944093 157.835158 58.898802 155.276941 C 59.587242 154.619511 59.782642 154.026592 59.488897 153.501014 C 59.224505 152.943196 58.766556 152.664313 58.108327 152.665432 C 57.684077 152.663864 57.33989 152.732313 57.074698 152.864055 C 54.250845 155.291181 51.363533 157.014824 48.408863 158.032155 C 45.452751 159.018691 42.432126 159.512186 39.346457 159.509279 C 35.178842 159.509285 31.007973 158.837612 26.840039 157.48983 Z M 17.531713 46.738919 C 17.006368 47.29461 16.876455 47.88747 17.137544 48.511309 C 17.400017 49.100455 17.809132 49.397435 18.367718 49.398352 C 18.764001 49.397467 19.091376 49.331688 19.353206 49.200481 C 22.176524 46.769991 25.067199 45.045814 28.021869 44.028484 C 30.976538 43.011153 34.011838 42.501538 37.131665 42.502468 C 41.29928 42.502462 45.470683 43.177497 49.638083 44.521917 L 50.822656 41.713954 C 45.731066 40.237085 41.105093 39.499801 36.934116 39.500341 C 33.552342 39.499645 30.253176 40.040823 27.036618 41.123874 C 23.818617 42.17613 20.651436 44.047634 17.531713 46.738919 Z M 53.429625 46.343134 C 53.594724 47.295908 54.135681 47.771885 55.056392 47.773894 C 55.87639 47.771215 56.352485 47.361232 56.484141 46.540582 C 56.484473 45.32713 56.008886 44.72012 55.05738 44.719554 C 54.137203 44.720907 53.595681 45.196436 53.432812 46.14614 Z M 89.775785 154.044578 C 89.086226 154.043778 88.610132 154.453761 88.347502 155.274527 C 88.347704 156.491343 88.823291 157.098352 89.774797 157.098918 C 90.694973 157.097565 91.21915 156.621344 91.35069 155.669721 L 91.350514 155.473261 C 91.220106 154.521872 90.692599 154.043759 89.775785 154.044578 Z M 21.371512 154.290641 C 20.716644 154.291226 20.255226 154.68509 19.993981 155.471164 C 19.994183 156.68798 20.452424 157.294297 21.372601 157.292944 C 22.324107 157.293509 22.865629 156.817981 22.997169 155.866358 L 22.996993 155.669898 C 22.864667 154.749838 22.32638 154.290673 21.371512 154.290641 Z M 120.404526 44.324718 C 120.534934 45.276107 121.079253 45.75155 122.030759 45.752116 C 122.851291 45.752799 123.327385 45.342816 123.459042 44.522166 C 123.459374 43.308713 122.983253 42.698342 122.032281 42.701138 C 121.077413 42.701106 120.53589 43.176635 120.404351 44.128258 Z M 120.404526 44.324718 " stroke="#d269e6" stroke-width="34.038563" stroke-opacity="1" stroke-miterlimit="4"/><g fill="#ffffff" fill-opacity="1"><g transform="translate(80.190767, 535.601528)"><g><path d="M 80.84375 -173.015625 C 84.0625 -173.410156 87.457031 -173.207031 91.03125 -172.40625 C 94.613281 -171.601562 97.800781 -169.640625 100.59375 -166.515625 C 103.394531 -163.390625 105.375 -158.398438 106.53125 -151.546875 C 107.6875 -144.691406 107.46875 -139.253906 105.875 -135.234375 C 104.289062 -131.222656 101.929688 -128.285156 98.796875 -126.421875 C 95.671875 -124.566406 92.539062 -123.210938 89.40625 -122.359375 L 44.21875 -114.734375 L 45.34375 -108.125 L 83.671875 -114.59375 C 86.410156 -115.0625 89.273438 -115 92.265625 -114.40625 C 95.265625 -113.8125 97.992188 -112.234375 100.453125 -109.671875 C 102.921875 -107.117188 104.617188 -103.109375 105.546875 -97.640625 C 106.472656 -92.160156 106.191406 -87.804688 104.703125 -84.578125 C 103.222656 -81.359375 101.171875 -78.941406 98.546875 -77.328125 C 95.921875 -75.710938 93.238281 -74.671875 90.5 -74.203125 L 63.359375 -69.625 L 64.4375 -63.234375 L 68.765625 -63.96875 L 71.734375 -46.40625 C 72.296875 -43.050781 72.65625 -39.269531 72.8125 -35.0625 C 72.976562 -30.863281 72.28125 -26.675781 70.71875 -22.5 C 69.15625 -18.332031 66.179688 -14.625 61.796875 -11.375 C 57.421875 -8.125 51.050781 -5.796875 42.6875 -4.390625 C 34.46875 -2.992188 27.796875 -3.113281 22.671875 -4.75 C 17.546875 -6.394531 13.554688 -8.929688 10.703125 -12.359375 C 7.847656 -15.796875 5.804688 -19.519531 4.578125 -23.53125 C 3.359375 -27.550781 2.46875 -31.238281 1.90625 -34.59375 L -13.828125 -127.6875 C -14.140625 -129.519531 -14.328125 -132.03125 -14.390625 -135.21875 C -14.460938 -138.414062 -13.96875 -141.742188 -12.90625 -145.203125 C -11.851562 -148.671875 -9.8125 -151.832031 -6.78125 -154.6875 C -3.75 -157.550781 0.65625 -159.472656 6.4375 -160.453125 Z M 1.265625 -134.25 C 1.335938 -132.84375 1.910156 -132.234375 2.984375 -132.421875 C 4.035156 -132.597656 4.5625 -133.148438 4.5625 -134.078125 C 4.75 -134.890625 4.832031 -135.804688 4.8125 -136.828125 C 4.789062 -137.847656 4.960938 -138.703125 5.328125 -139.390625 C 6.941406 -142.785156 10.328125 -145.425781 15.484375 -147.3125 C 20.640625 -149.207031 26.1875 -150.65625 32.125 -151.65625 C 36.988281 -152.476562 41.65625 -153.070312 46.125 -153.4375 C 50.601562 -153.800781 54.210938 -154.21875 56.953125 -154.6875 C 58.171875 -154.882812 58.773438 -155.488281 58.765625 -156.5 C 58.753906 -157.507812 58.109375 -158.070312 56.828125 -158.1875 C 54.398438 -157.769531 50.875 -157.328125 46.25 -156.859375 C 41.632812 -156.390625 36.820312 -155.734375 31.8125 -154.890625 C 25.269531 -153.773438 19.082031 -152.175781 13.25 -150.09375 C 7.414062 -148.019531 3.726562 -145.054688 2.1875 -141.203125 C 1.757812 -140.035156 1.519531 -138.898438 1.46875 -137.796875 C 1.414062 -136.691406 1.347656 -135.507812 1.265625 -134.25 Z M 40.21875 -19 C 35.5 -18.195312 30.65625 -18.160156 25.6875 -18.890625 L 24.859375 -15.46875 C 30.921875 -14.769531 36.304688 -14.816406 41.015625 -15.609375 C 44.972656 -16.273438 48.664062 -17.566406 52.09375 -19.484375 C 55.53125 -21.398438 58.679688 -24.082031 61.546875 -27.53125 C 62.179688 -28.414062 62.289062 -29.132812 61.875 -29.6875 C 61.46875 -30.25 60.882812 -30.46875 60.125 -30.34375 C 59.664062 -30.269531 59.296875 -30.128906 59.015625 -29.921875 C 56.296875 -26.640625 53.359375 -24.144531 50.203125 -22.4375 C 47.046875 -20.726562 43.71875 -19.582031 40.21875 -19 Z M 69.28125 -155.34375 C 69.894531 -155.445312 70.398438 -155.695312 70.796875 -156.09375 C 71.242188 -157.09375 71.207031 -157.785156 70.6875 -158.171875 C 70.132812 -158.703125 69.703125 -158.941406 69.390625 -158.890625 C 68.785156 -158.785156 68.390625 -158.128906 68.203125 -156.921875 C 68.015625 -155.722656 68.375 -155.195312 69.28125 -155.34375 Z M 18.90625 -21.5 C 18.144531 -21.375 17.6875 -20.828125 17.53125 -19.859375 C 17.769531 -18.492188 18.421875 -17.898438 19.484375 -18.078125 C 20.554688 -18.253906 21.066406 -18.890625 21.015625 -19.984375 L 20.984375 -20.21875 C 20.671875 -21.25 19.976562 -21.675781 18.90625 -21.5 Z M 18.90625 -21.5 "/></g></g></g><g fill="#ffffff" fill-opacity="1"><g transform="translate(206.244402, 513.163352)"><g><path d="M 155.453125 -107.484375 C 155.921875 -100.410156 155.570312 -94.015625 154.40625 -88.296875 C 153.25 -82.578125 151.414062 -77.546875 148.90625 -73.203125 L 140.375 -83.3125 L 136.859375 -80.28125 L 150.234375 -64 C 152.109375 -61.351562 153.941406 -58.15625 155.734375 -54.40625 C 157.523438 -50.65625 158.566406 -46.625 158.859375 -42.3125 C 159.160156 -37.695312 158.050781 -32.867188 155.53125 -27.828125 C 153.007812 -22.796875 148.035156 -17.863281 140.609375 -13.03125 C 136.765625 -10.457031 133.144531 -8.550781 129.75 -7.3125 C 126.351562 -6.082031 123.191406 -5.375 120.265625 -5.1875 C 115.179688 -4.84375 110.710938 -5.738281 106.859375 -7.875 C 103.003906 -10.019531 99.734375 -12.707031 97.046875 -15.9375 C 94.359375 -19.164062 92.082031 -22.109375 90.21875 -24.765625 L 68.765625 -61.390625 L 63.640625 -58.25 L 74.578125 -39.96875 L 74.65625 -38.8125 C 74.875 -35.425781 74.851562 -31.640625 74.59375 -27.453125 C 74.332031 -23.265625 73.210938 -19.164062 71.234375 -15.15625 C 69.253906 -11.15625 65.921875 -7.757812 61.234375 -4.96875 C 56.554688 -2.1875 49.984375 -0.515625 41.515625 0.046875 C 33.203125 0.597656 26.578125 -0.195312 21.640625 -2.34375 C 16.703125 -4.5 12.988281 -7.425781 10.5 -11.125 C 8.019531 -14.832031 6.367188 -18.742188 5.546875 -22.859375 C 4.734375 -26.984375 4.21875 -30.738281 4 -34.125 L -0.1875 -97.15625 C -1.0625 -110.40625 0.257812 -121.320312 3.78125 -129.90625 C 7.3125 -138.488281 12.625 -145.257812 19.71875 -150.21875 C 26.8125 -155.175781 35.191406 -158.820312 44.859375 -161.15625 C 54.523438 -163.5 65.054688 -165.050781 76.453125 -165.8125 C 100.160156 -167.375 118.890625 -163.546875 132.640625 -154.328125 C 146.390625 -145.117188 153.992188 -129.503906 155.453125 -107.484375 Z M 31.875 -141.984375 C 31.289062 -141.328125 31.175781 -140.660156 31.53125 -139.984375 C 31.894531 -139.316406 32.382812 -139 33 -139.03125 C 33.457031 -139.0625 33.835938 -139.164062 34.140625 -139.34375 C 38.703125 -142.738281 44.898438 -145.46875 52.734375 -147.53125 C 60.566406 -149.59375 68.632812 -150.898438 76.9375 -151.453125 C 82.789062 -151.835938 88.429688 -151.863281 93.859375 -151.53125 C 99.285156 -151.195312 103.976562 -150.3125 107.9375 -148.875 C 108.257812 -148.738281 108.65625 -148.6875 109.125 -148.71875 C 109.894531 -148.769531 110.375 -149.113281 110.5625 -149.75 C 110.75 -150.382812 110.59375 -150.992188 110.09375 -151.578125 C 107.082031 -152.753906 102.257812 -153.78125 95.625 -154.65625 C 89 -155.539062 81.679688 -155.71875 73.671875 -155.1875 C 66.285156 -154.695312 58.863281 -153.472656 51.40625 -151.515625 C 43.957031 -149.554688 37.445312 -146.378906 31.875 -141.984375 Z M 76.515625 -115.703125 C 73.296875 -115.347656 71.394531 -114.296875 70.8125 -112.546875 C 70.226562 -110.804688 69.976562 -109.316406 70.0625 -108.078125 L 70.5 -101.390625 C 70.582031 -100.160156 71.070312 -98.679688 71.96875 -96.953125 C 72.863281 -95.234375 75.078125 -94.492188 78.609375 -94.734375 C 81.660156 -95.242188 83.476562 -96.332031 84.0625 -98 C 84.65625 -99.664062 84.910156 -101.113281 84.828125 -102.34375 L 84.390625 -109.03125 C 84.304688 -110.269531 83.851562 -111.75 83.03125 -113.46875 C 82.21875 -115.1875 80.046875 -115.929688 76.515625 -115.703125 Z M 148.09375 -43.90625 C 147.46875 -43.863281 146.945312 -43.519531 146.53125 -42.875 C 144.007812 -36.539062 140.335938 -31.816406 135.515625 -28.703125 C 130.703125 -25.597656 124.9375 -23.363281 118.21875 -22 L 118.6875 -18.546875 C 125.863281 -19.941406 132.117188 -22.320312 137.453125 -25.6875 C 142.796875 -29.0625 146.859375 -34.320312 149.640625 -41.46875 C 149.898438 -42.25 149.859375 -42.859375 149.515625 -43.296875 C 149.179688 -43.742188 148.707031 -43.945312 148.09375 -43.90625 Z M 28.828125 -13.03125 C 34.796875 -11.738281 40.164062 -11.25 44.9375 -11.5625 C 48.9375 -11.832031 52.738281 -12.742188 56.34375 -14.296875 C 59.945312 -15.847656 63.34375 -18.195312 66.53125 -21.34375 C 67.257812 -22.15625 67.445312 -22.859375 67.09375 -23.453125 C 66.75 -24.054688 66.195312 -24.332031 65.4375 -24.28125 C 64.96875 -24.25 64.585938 -24.144531 64.296875 -23.96875 C 61.234375 -20.988281 58.046875 -18.804688 54.734375 -17.421875 C 51.429688 -16.046875 48.007812 -15.238281 44.46875 -15 C 39.695312 -14.6875 34.875 -15.140625 30 -16.359375 Z M 64.0625 -97.265625 C 62.976562 -97.191406 62.476562 -96.535156 62.5625 -95.296875 C 63.050781 -92.546875 64.253906 -90.15625 66.171875 -88.125 C 68.085938 -86.09375 70.519531 -85.015625 73.46875 -84.890625 C 74.695312 -84.972656 75.273438 -85.550781 75.203125 -86.625 C 75.128906 -87.707031 74.550781 -88.285156 73.46875 -88.359375 C 70.976562 -88.515625 69.117188 -89.671875 67.890625 -91.828125 C 66.671875 -93.984375 66.046875 -95.296875 66.015625 -95.765625 C 65.796875 -96.835938 65.144531 -97.335938 64.0625 -97.265625 Z M 84.140625 -126.65625 C 82.898438 -126.570312 82.3125 -126.023438 82.375 -125.015625 C 82.445312 -124.015625 83.035156 -123.398438 84.140625 -123.171875 C 86.765625 -123.203125 88.65625 -122.097656 89.8125 -119.859375 C 90.96875 -117.617188 91.5625 -116.265625 91.59375 -115.796875 C 91.96875 -114.722656 92.617188 -114.21875 93.546875 -114.28125 C 94.628906 -114.351562 95.128906 -115.007812 95.046875 -116.25 C 94.554688 -119 93.347656 -121.390625 91.421875 -123.421875 C 89.503906 -125.460938 87.078125 -126.539062 84.140625 -126.65625 Z M 113.90625 -150.1875 C 113.15625 -149.84375 112.726562 -149.28125 112.625 -148.5 L 112.6875 -147.5625 C 112.914062 -146.507812 113.566406 -146.015625 114.640625 -146.078125 C 115.398438 -146.128906 115.84375 -146.382812 115.96875 -146.84375 C 116.863281 -147.375 117.203125 -148.09375 116.984375 -149 C 116.765625 -149.914062 116.039062 -150.332031 114.8125 -150.25 Z M 111.65625 -22.9375 C 110.269531 -22.851562 109.78125 -22.128906 110.1875 -20.765625 C 110.71875 -19.703125 111.367188 -19.195312 112.140625 -19.25 C 113.523438 -19.34375 114.007812 -20.226562 113.59375 -21.90625 L 113.34375 -22.125 C 112.84375 -22.707031 112.28125 -22.976562 111.65625 -22.9375 Z M 21.984375 -18.15625 C 22.078125 -16.769531 22.664062 -16.113281 23.75 -16.1875 C 24.820312 -16.257812 25.394531 -16.84375 25.46875 -17.9375 L 25.453125 -18.171875 C 25.242188 -19.222656 24.601562 -19.710938 23.53125 -19.640625 C 22.757812 -19.585938 22.242188 -19.09375 21.984375 -18.15625 Z M 21.984375 -18.15625 "/></g></g></g><g fill="#ffffff" fill-opacity="1"><g transform="translate(366.594749, 502.166167)"><g><path d="M 165.40625 -64.859375 C 165.425781 -65.171875 165.257812 -62.4375 164.90625 -56.65625 C 164.5625 -50.875 163.976562 -40.671875 163.15625 -26.046875 C 163 -22.648438 162.550781 -18.882812 161.8125 -14.75 C 161.082031 -10.613281 159.507812 -6.671875 157.09375 -2.921875 C 154.675781 0.828125 150.984375 3.820312 146.015625 6.0625 C 141.046875 8.3125 134.328125 9.238281 125.859375 8.84375 C 117.535156 8.457031 111.039062 6.921875 106.375 4.234375 C 101.707031 1.546875 98.347656 -1.773438 96.296875 -5.734375 C 94.242188 -9.691406 93.039062 -13.765625 92.6875 -17.953125 C 92.34375 -22.140625 92.25 -25.929688 92.40625 -29.328125 L 92.640625 -34.40625 C 96.710938 -35.601562 100.144531 -37.988281 102.9375 -41.5625 C 105.738281 -45.144531 107.40625 -49.472656 107.9375 -54.546875 L 102.15625 -54.8125 C 101.59375 -49.125 99.671875 -45.117188 96.390625 -42.796875 C 93.117188 -40.484375 89.554688 -39.414062 85.703125 -39.59375 C 81.859375 -39.769531 78.375 -41.164062 75.25 -43.78125 C 72.125 -46.394531 70.535156 -50.5625 70.484375 -56.28125 L 64.71875 -56.546875 C 64.789062 -51.441406 66.050781 -46.976562 68.5 -43.15625 C 70.945312 -39.34375 74.140625 -36.648438 78.078125 -35.078125 L 77.84375 -30 C 77.6875 -26.601562 77.238281 -22.835938 76.5 -18.703125 C 75.769531 -14.566406 74.195312 -10.625 71.78125 -6.875 C 69.375 -3.125 65.722656 -0.125 60.828125 2.125 C 55.929688 4.375 49.328125 5.304688 41.015625 4.921875 C 32.535156 4.523438 25.925781 2.976562 21.1875 0.28125 C 16.445312 -2.40625 13.046875 -5.726562 10.984375 -9.6875 C 8.929688 -13.644531 7.726562 -17.71875 7.375 -21.90625 C 7.03125 -26.09375 6.9375 -29.882812 7.09375 -33.28125 C 7.625 -47.914062 7.984375 -58.125 8.171875 -63.90625 C 8.367188 -69.695312 8.457031 -72.4375 8.4375 -72.125 C 8.851562 -81.0625 9.679688 -89.785156 10.921875 -98.296875 C 12.160156 -106.804688 14.34375 -114.738281 17.46875 -122.09375 C 20.59375 -129.445312 25.054688 -135.804688 30.859375 -141.171875 C 36.671875 -146.535156 44.273438 -150.582031 53.671875 -153.3125 C 63.066406 -156.050781 74.695312 -157.097656 88.5625 -156.453125 L 93.421875 -156.234375 C 107.296875 -155.585938 118.785156 -153.46875 127.890625 -149.875 C 136.992188 -146.289062 144.1875 -141.554688 149.46875 -135.671875 C 154.757812 -129.796875 158.613281 -123.050781 161.03125 -115.4375 C 163.457031 -107.832031 164.894531 -99.734375 165.34375 -91.140625 C 165.800781 -82.554688 165.820312 -73.796875 165.40625 -64.859375 Z M 81.28125 -84.28125 C 81.226562 -83.039062 81.503906 -81.515625 82.109375 -79.703125 C 82.722656 -77.898438 84.722656 -76.921875 88.109375 -76.765625 C 91.222656 -76.929688 93.125 -77.8125 93.8125 -79.40625 C 94.5 -81 94.867188 -82.414062 94.921875 -83.65625 L 95.6875 -100.0625 C 95.75 -101.300781 95.472656 -102.816406 94.859375 -104.609375 C 94.242188 -106.410156 92.238281 -107.390625 88.84375 -107.546875 C 85.914062 -107.535156 84.066406 -106.695312 83.296875 -105.03125 C 82.523438 -103.375 82.109375 -101.925781 82.046875 -100.6875 Z M 62.71875 -138.875 C 62.082031 -138.289062 61.863281 -137.644531 62.0625 -136.9375 C 62.257812 -136.226562 62.742188 -135.859375 63.515625 -135.828125 L 63.96875 -135.796875 C 71.070312 -138.878906 79.09375 -140.210938 88.03125 -139.796875 C 98.195312 -139.328125 107.664062 -137.035156 116.4375 -132.921875 C 117.675781 -133.160156 118.238281 -133.707031 118.125 -134.5625 C 118.007812 -135.425781 117.34375 -136.039062 116.125 -136.40625 C 112.375 -138.582031 108.320312 -140.234375 103.96875 -141.359375 C 99.625 -142.492188 95.140625 -143.171875 90.515625 -143.390625 C 81.109375 -143.828125 71.84375 -142.320312 62.71875 -138.875 Z M 148.484375 -9.34375 C 149.285156 -10.082031 149.546875 -10.765625 149.265625 -11.390625 C 148.992188 -12.015625 148.472656 -12.347656 147.703125 -12.390625 C 147.234375 -12.410156 146.84375 -12.351562 146.53125 -12.21875 C 143.164062 -9.59375 139.757812 -7.78125 136.3125 -6.78125 C 132.875 -5.78125 129.378906 -5.363281 125.828125 -5.53125 C 121.054688 -5.75 116.3125 -6.738281 111.59375 -8.5 L 110.0625 -5.328125 C 115.84375 -3.359375 121.117188 -2.265625 125.890625 -2.046875 C 129.898438 -1.859375 133.785156 -2.332031 137.546875 -3.46875 C 141.304688 -4.601562 144.953125 -6.5625 148.484375 -9.34375 Z M 25.484375 -9.9375 C 31.265625 -7.96875 36.539062 -6.875 41.3125 -6.65625 C 45.320312 -6.46875 49.207031 -6.941406 52.96875 -8.078125 C 56.726562 -9.222656 60.375 -11.179688 63.90625 -13.953125 C 64.707031 -14.679688 64.96875 -15.363281 64.6875 -16 C 64.40625 -16.632812 63.878906 -16.972656 63.109375 -17.015625 C 62.648438 -17.035156 62.257812 -16.972656 61.9375 -16.828125 C 58.570312 -14.191406 55.171875 -12.375 51.734375 -11.375 C 48.296875 -10.382812 44.800781 -9.96875 41.25 -10.125 C 36.476562 -10.351562 31.734375 -11.347656 27.015625 -13.109375 Z M 74.125 -74.65625 C 73.039062 -74.707031 72.546875 -74.03125 72.640625 -72.625 C 73.117188 -69.664062 74.578125 -67.859375 77.015625 -67.203125 C 79.460938 -66.546875 81.914062 -66.160156 84.375 -66.046875 C 85.625 -66.304688 86.191406 -66.9375 86.078125 -67.9375 C 85.972656 -68.945312 85.300781 -69.484375 84.0625 -69.546875 L 82.234375 -69.625 C 80.992188 -69.6875 79.6875 -69.90625 78.3125 -70.28125 C 76.945312 -70.65625 76.144531 -71.625 75.90625 -73.1875 C 75.789062 -74.113281 75.195312 -74.601562 74.125 -74.65625 Z M 97.015625 -113.671875 C 95.929688 -113.710938 95.289062 -113.273438 95.09375 -112.359375 C 94.894531 -111.441406 95.253906 -110.8125 96.171875 -110.46875 C 97.859375 -110.070312 98.8125 -109.054688 99.03125 -107.421875 C 99.257812 -105.785156 99.359375 -104.582031 99.328125 -103.8125 C 99.585938 -102.726562 100.179688 -102.164062 101.109375 -102.125 C 102.179688 -102.070312 102.742188 -102.660156 102.796875 -103.890625 C 102.742188 -105.898438 102.296875 -107.890625 101.453125 -109.859375 C 100.617188 -111.835938 99.140625 -113.109375 97.015625 -113.671875 Z M 119.8125 -130.6875 C 119.757812 -129.613281 120.269531 -129.050781 121.34375 -129 C 122.582031 -128.9375 123.226562 -129.441406 123.28125 -130.515625 C 123.332031 -131.742188 122.738281 -132.390625 121.5 -132.453125 C 120.425781 -132.503906 119.863281 -131.914062 119.8125 -130.6875 Z M 103.84375 -11.171875 C 103.78125 -9.785156 104.289062 -9.070312 105.375 -9.03125 C 106.457031 -8.976562 107.097656 -9.484375 107.296875 -10.546875 L 107.3125 -10.78125 C 107.207031 -11.875 106.613281 -12.445312 105.53125 -12.5 C 104.757812 -12.53125 104.195312 -12.085938 103.84375 -11.171875 Z M 19.265625 -15.78125 C 19.203125 -14.394531 19.710938 -13.675781 20.796875 -13.625 C 21.859375 -13.582031 22.492188 -14.097656 22.703125 -15.171875 L 22.71875 -15.40625 C 22.601562 -16.488281 22.015625 -17.050781 20.953125 -17.09375 C 20.179688 -17.132812 19.617188 -16.695312 19.265625 -15.78125 Z M 19.265625 -15.78125 "/></g></g></g><g fill="#ffffff" fill-opacity="1"><g transform="translate(527.681738, 509.41252)"><g><path d="M 42.078125 9.5 C 34.003906 8.21875 27.847656 5.910156 23.609375 2.578125 C 19.367188 -0.753906 16.460938 -4.613281 14.890625 -9 C 13.328125 -13.382812 12.585938 -17.796875 12.671875 -22.234375 C 12.753906 -26.679688 13.082031 -30.734375 13.65625 -34.390625 L 27.09375 -118.953125 C 27.644531 -122.460938 28.53125 -126.34375 29.75 -130.59375 C 30.976562 -134.851562 32.976562 -138.832031 35.75 -142.53125 C 38.53125 -146.226562 42.445312 -149.003906 47.5 -150.859375 C 52.5625 -152.722656 59.207031 -153 67.4375 -151.6875 C 72.46875 -150.894531 76.941406 -149.5625 80.859375 -147.6875 C 84.785156 -145.8125 88.21875 -142.800781 91.15625 -138.65625 C 94.09375 -134.519531 96.664062 -128.601562 98.875 -120.90625 L 108.390625 -89.40625 L 114.25 -90.828125 L 106.59375 -116.421875 C 106.195312 -118.816406 106.140625 -120.929688 106.421875 -122.765625 C 107.390625 -128.847656 111.265625 -133.578125 118.046875 -136.953125 C 124.835938 -140.335938 133.796875 -141.148438 144.921875 -139.390625 C 153.003906 -138.109375 159.160156 -135.800781 163.390625 -132.46875 C 167.628906 -129.132812 170.539062 -125.3125 172.125 -121 C 173.707031 -116.695312 174.457031 -112.320312 174.375 -107.875 C 174.289062 -103.4375 173.957031 -99.382812 173.375 -95.71875 L 159.9375 -11.15625 C 159.382812 -7.65625 158.492188 -3.773438 157.265625 0.484375 C 156.046875 4.742188 154.050781 8.722656 151.28125 12.421875 C 148.507812 16.117188 144.585938 18.929688 139.515625 20.859375 C 134.441406 22.796875 127.789062 23.113281 119.5625 21.8125 C 114.539062 21.007812 110.113281 19.597656 106.28125 17.578125 C 102.457031 15.566406 98.941406 12.117188 95.734375 7.234375 C 92.535156 2.347656 89.335938 -4.796875 86.140625 -14.203125 L 76.75 -43.578125 L 71.0625 -41.6875 L 80.453125 -13.703125 C 80.847656 -11.304688 80.898438 -9.191406 80.609375 -7.359375 C 79.640625 -1.265625 75.789062 3.515625 69.0625 6.984375 C 62.34375 10.453125 53.347656 11.289062 42.078125 9.5 Z M 146.46875 2.859375 C 146.007812 2.796875 145.617188 2.816406 145.296875 2.921875 C 141.660156 5.148438 138.070312 6.570312 134.53125 7.1875 C 131 7.800781 127.484375 7.832031 123.984375 7.28125 C 119.253906 6.519531 114.644531 5.003906 110.15625 2.734375 L 108.28125 5.703125 C 113.8125 8.304688 118.9375 9.984375 123.65625 10.734375 C 127.625 11.359375 131.539062 11.3125 135.40625 10.59375 C 139.269531 9.882812 143.101562 8.351562 146.90625 6 C 147.78125 5.34375 148.113281 4.6875 147.90625 4.03125 C 147.707031 3.375 147.226562 2.984375 146.46875 2.859375 Z M 118.3125 -126.734375 C 117.601562 -126.222656 117.34375 -125.597656 117.53125 -124.859375 C 117.726562 -124.128906 118.128906 -123.710938 118.734375 -123.609375 C 119.203125 -123.535156 119.601562 -123.554688 119.9375 -123.671875 C 123.570312 -125.898438 127.15625 -127.316406 130.6875 -127.921875 C 134.21875 -128.535156 137.734375 -128.5625 141.234375 -128 C 145.960938 -127.25 150.566406 -125.738281 155.046875 -123.46875 L 156.9375 -126.453125 C 151.40625 -129.046875 146.273438 -130.71875 141.546875 -131.46875 C 137.742188 -132.070312 133.914062 -132.050781 130.0625 -131.40625 C 126.21875 -130.769531 122.300781 -129.210938 118.3125 -126.734375 Z M 32.65625 -9.34375 L 30.78125 -6.359375 C 36.300781 -3.765625 41.421875 -2.09375 46.140625 -1.34375 C 50.097656 -0.707031 54.003906 -0.75 57.859375 -1.46875 C 61.722656 -2.1875 65.566406 -3.726562 69.390625 -6.09375 C 70.265625 -6.726562 70.597656 -7.375 70.390625 -8.03125 C 70.191406 -8.6875 69.710938 -9.078125 68.953125 -9.203125 C 68.492188 -9.273438 68.097656 -9.257812 67.765625 -9.15625 C 64.140625 -6.914062 60.554688 -5.488281 57.015625 -4.875 C 53.484375 -4.269531 49.960938 -4.242188 46.453125 -4.796875 C 41.734375 -5.546875 37.132812 -7.0625 32.65625 -9.34375 Z M 42.0625 -136.5 C 41.351562 -135.988281 41.097656 -135.363281 41.296875 -134.625 C 41.492188 -133.894531 41.894531 -133.484375 42.5 -133.390625 C 42.957031 -133.316406 43.347656 -133.328125 43.671875 -133.421875 C 47.316406 -135.660156 50.90625 -137.082031 54.4375 -137.6875 C 57.96875 -138.300781 61.484375 -138.332031 64.984375 -137.78125 C 69.722656 -137.019531 74.332031 -135.507812 78.8125 -133.25 L 80.6875 -136.21875 C 75.164062 -138.8125 70.039062 -140.484375 65.3125 -141.234375 C 61.5 -141.835938 57.664062 -141.820312 53.8125 -141.1875 C 49.96875 -140.550781 46.050781 -138.988281 42.0625 -136.5 Z M 82.8125 -130.484375 C 82.800781 -129.398438 83.332031 -128.773438 84.40625 -128.609375 C 85.320312 -128.460938 85.925781 -128.835938 86.21875 -129.734375 C 86.4375 -131.097656 86.015625 -131.863281 84.953125 -132.03125 C 83.878906 -132.195312 83.175781 -131.757812 82.84375 -130.71875 Z M 104.5625 -1.90625 C 103.800781 -2.03125 103.207031 -1.65625 102.78125 -0.78125 C 102.5625 0.59375 102.976562 1.363281 104.03125 1.53125 C 105.101562 1.695312 105.800781 1.253906 106.125 0.203125 L 106.15625 -0.015625 C 106.164062 -1.109375 105.632812 -1.738281 104.5625 -1.90625 Z M 27.0625 -13.984375 C 26.289062 -14.097656 25.679688 -13.722656 25.234375 -12.859375 C 25.015625 -11.484375 25.441406 -10.710938 26.515625 -10.546875 C 27.578125 -10.367188 28.273438 -10.804688 28.609375 -11.859375 L 28.640625 -12.09375 C 28.648438 -13.175781 28.125 -13.804688 27.0625 -13.984375 Z M 159.0625 -120.734375 C 159.050781 -119.640625 159.578125 -119.007812 160.640625 -118.84375 C 161.554688 -118.695312 162.164062 -119.066406 162.46875 -119.953125 C 162.6875 -121.316406 162.257812 -122.085938 161.1875 -122.265625 C 160.125 -122.429688 159.429688 -121.992188 159.109375 -120.953125 Z M 159.0625 -120.734375 "/></g></g></g></svg>